<svg width="142" height="49" viewBox="0 0 142 49" fill="none" xmlns="http://www.w3.org/2000/svg">
<path d="M65.9004 32.9277L65.3545 36H57.8896L58.4228 32.9277H65.9004ZM62.2187 17.5156L59.0195 36H55.3886L58.5752 17.5156H62.2187ZM73.3271 22.2637L70.9277 36H67.4619L69.8486 22.2637H73.3271ZM70.3056 18.7725C70.2972 18.2223 70.4707 17.7568 70.8261 17.376C71.1816 16.9951 71.6386 16.8005 72.1972 16.792C72.7389 16.7835 73.1875 16.9528 73.5429 17.2998C73.8984 17.6468 74.0719 18.0954 74.0634 18.6455C74.0804 19.1872 73.9111 19.6484 73.5556 20.0293C73.2086 20.4102 72.7516 20.6048 72.1845 20.6133C71.6513 20.6302 71.207 20.4652 70.8515 20.1182C70.4961 19.7627 70.3141 19.3141 70.3056 18.7725ZM77.0341 16.5H80.5L77.6435 32.9785L76.8818 36H73.6445L77.0341 16.5ZM85.2861 28.6113L85.1845 29.5254C85.083 30.2786 84.9306 31.0573 84.7275 31.8613C84.5328 32.6654 84.2409 33.4059 83.8515 34.083C83.4707 34.7601 82.9671 35.3018 82.3408 35.708C81.7145 36.1143 80.9316 36.3005 79.9922 36.2666C79.2304 36.2412 78.6168 36.0042 78.1513 35.5557C77.6943 35.1071 77.3558 34.5485 77.1357 33.8799C76.9241 33.2028 76.7887 32.5003 76.7295 31.7725C76.6702 31.0446 76.6618 30.3844 76.7041 29.792L76.8691 28.4717C76.9791 27.8285 77.1526 27.1302 77.3896 26.377C77.6266 25.6237 77.9397 24.9128 78.3291 24.2441C78.7184 23.5671 79.205 23.0169 79.789 22.5938C80.373 22.1706 81.0586 21.9674 81.8457 21.9844C82.7513 22.0013 83.4537 22.2256 83.9531 22.6572C84.4524 23.0804 84.8079 23.6263 85.0195 24.2949C85.2396 24.9635 85.3538 25.6787 85.3623 26.4404C85.3792 27.2021 85.3538 27.9258 85.2861 28.6113ZM81.7187 29.5762L81.8203 28.6494C81.8372 28.3617 81.8668 28.0104 81.9091 27.5957C81.9599 27.181 81.9642 26.7747 81.9218 26.377C81.888 25.9792 81.7695 25.6491 81.5664 25.3867C81.3717 25.1159 81.0501 24.9762 80.6015 24.9678C80.1868 24.9424 79.8313 25.0186 79.5351 25.1963C79.2474 25.374 79.0062 25.6152 78.8115 25.9199C78.6168 26.2161 78.4603 26.542 78.3418 26.8975C78.2317 27.2445 78.1513 27.583 78.1006 27.9131L77.7705 30.3379C77.7366 30.7526 77.7324 31.1842 77.7578 31.6328C77.7916 32.0814 77.9228 32.4665 78.1513 32.7881C78.3799 33.1012 78.7565 33.2747 79.2812 33.3086C79.789 33.334 80.1953 33.2324 80.5 33.0039C80.8131 32.7669 81.0459 32.458 81.1982 32.0771C81.359 31.6878 81.4733 31.2731 81.541 30.833C81.6172 30.3844 81.6764 29.9655 81.7187 29.5762ZM91.4179 25.5137L89.6025 36H86.1367L88.5234 22.2637H91.7988L91.4179 25.5137ZM95.0615 22.1494L94.5918 25.6914C94.4056 25.6491 94.2151 25.6195 94.0205 25.6025C93.8343 25.5771 93.6523 25.5645 93.4746 25.5645C93.026 25.556 92.6409 25.6279 92.3193 25.7803C92.0062 25.9326 91.7438 26.1484 91.5322 26.4277C91.3206 26.6986 91.1429 27.0075 90.999 27.3545C90.8636 27.7015 90.7578 28.0612 90.6816 28.4336L90.0722 28.1797C90.1399 27.6465 90.2457 27.0244 90.3896 26.3135C90.542 25.6025 90.7578 24.917 91.0371 24.2568C91.3248 23.5967 91.7057 23.0508 92.1797 22.6191C92.6536 22.1875 93.2503 21.9717 93.9697 21.9717C94.1644 21.9801 94.3463 22.0013 94.5156 22.0352C94.6933 22.069 94.8753 22.1071 95.0615 22.1494ZM94.7695 29.6016L94.8838 28.6875C94.9769 27.8242 95.1758 26.9906 95.4804 26.1865C95.7936 25.3825 96.2083 24.6589 96.7246 24.0156C97.2493 23.3724 97.8799 22.873 98.6162 22.5176C99.361 22.1536 100.216 21.9844 101.181 22.0098C102.129 22.0267 102.907 22.2298 103.517 22.6191C104.134 23.0085 104.617 23.5247 104.964 24.168C105.311 24.8027 105.535 25.5137 105.637 26.3008C105.747 27.0794 105.759 27.8708 105.675 28.6748L105.573 29.5889C105.463 30.4606 105.256 31.2985 104.951 32.1025C104.646 32.9066 104.232 33.626 103.707 34.2607C103.191 34.8955 102.56 35.3949 101.815 35.7588C101.079 36.1143 100.228 36.2793 99.2636 36.2539C98.3242 36.237 97.5455 36.0339 96.9277 35.6445C96.3183 35.2552 95.8401 34.7432 95.4931 34.1084C95.1461 33.4736 94.9176 32.7669 94.8076 31.9883C94.6976 31.2012 94.6849 30.4056 94.7695 29.6016ZM98.375 28.6748L98.2734 29.627C98.248 29.8978 98.2226 30.2363 98.1972 30.6426C98.1718 31.0404 98.1888 31.4424 98.248 31.8486C98.3073 32.2549 98.4384 32.5977 98.6416 32.877C98.8447 33.1478 99.1578 33.2917 99.581 33.3086C100.055 33.3424 100.449 33.2367 100.762 32.9912C101.083 32.7373 101.333 32.4115 101.511 32.0137C101.688 31.6159 101.824 31.2012 101.917 30.7695C102.01 30.3294 102.078 29.9316 102.12 29.5762L102.209 28.6494C102.226 28.387 102.243 28.0527 102.26 27.6465C102.285 27.2318 102.268 26.8255 102.209 26.4277C102.15 26.0215 102.014 25.6787 101.803 25.3994C101.6 25.1201 101.291 24.9678 100.876 24.9424C100.41 24.917 100.025 25.0312 99.7207 25.2852C99.4244 25.5391 99.1832 25.8649 98.997 26.2627C98.8108 26.652 98.6712 27.0667 98.5781 27.5068C98.485 27.9469 98.4173 28.3363 98.375 28.6748ZM111.832 25.3867L109.991 36H106.487L108.874 22.2637H112.137L111.832 25.3867ZM110.753 28.6621L109.953 28.7129C110.012 27.985 110.148 27.2275 110.359 26.4404C110.571 25.6449 110.876 24.9043 111.273 24.2188C111.68 23.5332 112.192 22.9873 112.81 22.5811C113.427 22.1663 114.185 21.9717 115.082 21.9971C115.793 22.0225 116.352 22.2002 116.758 22.5303C117.172 22.8604 117.473 23.292 117.659 23.8252C117.854 24.3499 117.964 24.9128 117.989 25.5137C118.015 26.1061 117.998 26.6901 117.938 27.2656L116.478 36H113.013L114.46 27.2275C114.494 26.8805 114.502 26.5378 114.485 26.1992C114.477 25.8522 114.388 25.5602 114.219 25.3232C114.049 25.0863 113.749 24.9678 113.317 24.9678C112.86 24.9424 112.479 25.0566 112.175 25.3105C111.87 25.5645 111.62 25.8903 111.426 26.2881C111.24 26.6774 111.091 27.0837 110.981 27.5068C110.88 27.93 110.804 28.3151 110.753 28.6621ZM124.565 36.2539C123.651 36.237 122.868 36.0592 122.217 35.7207C121.565 35.3822 121.045 34.9209 120.655 34.3369C120.266 33.7445 119.999 33.0758 119.855 32.3311C119.712 31.5778 119.682 30.7738 119.767 29.9189L119.894 28.7891C120.012 27.9089 120.219 27.0583 120.516 26.2373C120.812 25.4163 121.21 24.6842 121.709 24.041C122.217 23.3893 122.839 22.8815 123.575 22.5176C124.311 22.1536 125.175 21.9801 126.165 21.9971C127.113 22.0225 127.879 22.234 128.463 22.6318C129.055 23.0212 129.5 23.5374 129.796 24.1807C130.101 24.8239 130.287 25.5391 130.354 26.3262C130.422 27.1048 130.405 27.8919 130.304 28.6875L130.075 30.3125H121.125L121.569 27.8115L126.99 27.8242L127.054 27.4688C127.113 27.1133 127.134 26.7451 127.117 26.3643C127.1 25.9749 126.999 25.6491 126.812 25.3867C126.626 25.1159 126.305 24.9678 125.848 24.9424C125.348 24.917 124.942 25.0312 124.629 25.2852C124.324 25.5306 124.087 25.8564 123.918 26.2627C123.749 26.6689 123.626 27.0964 123.55 27.5449C123.482 27.985 123.427 28.3997 123.385 28.7891L123.245 29.9316C123.203 30.3125 123.186 30.6976 123.194 31.0869C123.203 31.4678 123.254 31.8232 123.347 32.1533C123.448 32.4834 123.626 32.7542 123.88 32.9658C124.142 33.1774 124.515 33.2874 124.997 33.2959C125.589 33.3128 126.135 33.2028 126.635 32.9658C127.143 32.7288 127.617 32.4242 128.057 32.0518L129.237 34.2227C128.882 34.6966 128.45 35.0902 127.942 35.4033C127.435 35.708 126.884 35.9281 126.292 36.0635C125.708 36.1989 125.132 36.2624 124.565 36.2539ZM139.305 22.2637L138.822 24.9424H132.005L132.487 22.2637H139.305ZM134.645 18.874H138.099L135.89 31.8486C135.864 32.0687 135.852 32.2803 135.852 32.4834C135.852 32.6865 135.898 32.8558 135.991 32.9912C136.093 33.1266 136.279 33.1986 136.55 33.207C136.694 33.207 136.833 33.1986 136.969 33.1816C137.113 33.1647 137.256 33.1436 137.4 33.1182L137.121 35.9238C136.825 36.0339 136.524 36.1143 136.22 36.165C135.915 36.2158 135.602 36.237 135.28 36.2285C134.493 36.2201 133.88 36.0254 133.439 35.6445C132.999 35.2637 132.699 34.7686 132.538 34.1592C132.377 33.5498 132.331 32.8939 132.398 32.1914L134.645 18.874Z" fill="#9BD4D1"/>
<path d="M48.0841 0H0V49H48.0841V0Z" fill="white" fill-opacity="0.01"/>
<path d="M6.01051 37.73C6.01051 29.8859 6.01051 11.2547 6.01051 11.2547C6.01051 7.88039 8.70151 5.14499 12.021 5.14499H36.0631V31.6203C36.0631 31.6203 17.2628 31.6203 12.021 31.6203C8.71525 31.6203 6.01051 34.3536 6.01051 37.73Z" fill="#E2FFFD"/>
<path fill-rule="evenodd" clip-rule="evenodd" d="M12.0634 7.02334C9.86085 7.02334 8.0753 8.8515 8.0753 11.1067H6.08122H4.08714C4.08714 6.59634 7.65825 2.94 12.0634 2.94H35.9924C37.0937 2.94 37.9864 3.85409 37.9864 4.98167V31.5233C37.9864 32.6509 37.0937 33.565 35.9924 33.565V31.5233C35.9924 33.565 35.9923 33.565 35.9921 33.565H12.0634C9.8711 33.565 8.0753 35.3945 8.0753 37.6483C8.0753 38.7759 7.18252 39.69 6.08122 39.69C4.97992 39.69 4.08714 38.7759 4.08714 37.6483V11.1069C4.08714 11.1067 4.08714 11.1067 6.08122 11.1067C8.0753 11.1067 8.0753 11.1067 8.0753 11.1069V30.5775C9.25019 29.8805 10.6131 29.4817 12.0634 29.4817H33.9983V7.02334H12.0634Z" fill="#9BD4D1"/>
<path fill-rule="evenodd" clip-rule="evenodd" d="M42.0015 5.14499C43.1035 5.14499 43.997 6.05542 43.997 7.17849V43.7815C43.997 44.9046 43.1035 45.815 42.0015 45.815H12.0691C7.66079 45.815 4.08714 42.1733 4.08714 37.681C4.08714 33.1887 7.66079 29.547 12.0691 29.547H36.0147C36.0149 29.547 36.015 29.547 36.015 31.5805C36.015 33.614 36.0149 33.614 36.0147 33.614H12.0691C9.86495 33.614 8.07812 35.4349 8.07812 37.681C8.07812 39.9271 9.86495 41.748 12.0691 41.748H40.006V7.17849C40.006 6.05542 40.8994 5.14499 42.0015 5.14499ZM38.0105 31.5805C38.0105 32.7036 37.1171 33.614 36.015 33.614V31.5805V29.547C37.1171 29.547 38.0105 30.4574 38.0105 31.5805Z" fill="#9BD4D1"/>
<path fill-rule="evenodd" clip-rule="evenodd" d="M11.0593 37.8525C11.0593 36.7024 11.9536 35.77 13.0567 35.77H35.0274C36.1305 35.77 37.0248 36.7024 37.0248 37.8525C37.0248 39.0026 36.1305 39.935 35.0274 39.935H13.0567C11.9536 39.935 11.0593 39.0026 11.0593 37.8525Z" fill="#9BD4D1"/>
</svg>
